<?xml version="1.0" encoding="UTF-8"?>

<svg width="92"
    height="28"
    role="img"
    aria-label="AJAX"
    xmlns="http://www.w3.org/2000/svg"
    version="1.1"
    xml:space="preserve">
    
    <title>AJAX</title>

    <rect width="100%" height="100%" fill="#1E5AA8" />

    <g transform="translate(5, -6) scale(0.070)"
        fill="white">

        <path d="M50.42,251.09L0.47,362.92h32.69l9.68-23.71h50.23l9.68,23.71h32.55L85.22,251.09L50.42,251.09
            L50.42,251.09z M68.1,277.47l8.42,21.33l8.42,21.33H68.1H51.26l8.42-21.33L68.1,277.47L68.1,277.47z" />
        <path d="M292.46,251.09l-49.95,111.83h32.69l9.68-23.71h50.23l9.68,23.71h32.69L327.4,251.09
            L292.46,251.09L292.46,251.09z M310.28,277.47l8.42,21.33l8.42,21.33h-16.84h-16.84l8.42-21.33L310.28,277.47L310.28,277.47z" />
        <polygon points="386.05,250.67 423.09,250.67 446.8,286.45 471.92,250.67 508.54,250.67 464.48,304.97 
            511.35,363.34 474.31,363.34 447.37,325.31 420.99,363.34 381.42,363.34 429.13,305.53 	" />
        <path d="M229.18,203.38l-44.34,43.64l15.29,13.89l14.45-14.59h1.68v83.35
            c0,10.52-8.56,19.08-19.08,19.08h-15.15c-10.52,0-19.08-8.56-19.08-19.08v-8.84h-29.47v11.08c0,19.08,15.43,34.52,34.52,34.52
            h39.29c19.08,0,34.52-15.43,34.52-34.52v-85.45h1.12l16.84,14.45l13.33-13.89L229.18,203.38L229.18,203.38z" />
        <path d="M147.66,311.7L192,268.07l-15.29-13.89l-14.45,14.59h-1.68v-83.35
            c0-10.52,8.56-19.08,19.08-19.08h15.15c10.52,0,19.08,8.56,19.08,19.08v8.84h29.47v-11.08c0-19.08-15.43-34.52-34.52-34.52h-39.29
            c-19.08,0-34.52,15.43-34.52,34.52v85.45h-1.12l-16.84-14.45l-13.33,13.89L147.66,311.7L147.66,311.7z" />
    </g>
    
    <text transform="scale(.1)"
    x="660" y="195"
    textLength="420"
    fill="#fff"
    font-weight="bold"
    text-anchor="middle"
    font-family="Verdana,Geneva,DejaVu Sans,sans-serif"
    text-rendering="geometricPrecision"
    font-size="150">AJAX</text>
</svg>